<?xml version="1.0" standalone="no"?>
<!DOCTYPE svg PUBLIC "-//W3C//DTD SVG 20010904//EN"
 "http://www.w3.org/TR/2001/REC-SVG-20010904/DTD/svg10.dtd">
<svg version="1.0" xmlns="http://www.w3.org/2000/svg"
 width="827.000000pt" height="827.000000pt" viewBox="0 0 827.000000 827.000000"
 preserveAspectRatio="xMidYMid meet">
<metadata>
Created by potrace 1.14, written by Peter Selinger 2001-2017
</metadata>
<g transform="translate(0.000000,827.000000) scale(0.100000,-0.100000)"
fill="#000000" stroke="none">
<path d="M2363 7826 c-4 -5 -1 -6 7 -1 9 6 11 4 6 -4 -5 -7 -15 -10 -23 -7 -8
3 -12 2 -9 -2 3 -5 -4 -15 -15 -22 -10 -8 -19 -22 -19 -32 0 -10 -6 -18 -14
-18 -10 0 -12 -7 -8 -22 3 -12 1 -19 -4 -15 -6 3 -10 -4 -11 -16 0 -12 -4 -31
-8 -41 -7 -15 -5 -17 6 -11 8 5 7 1 -4 -12 -9 -11 -14 -22 -11 -26 4 -3 -1
-13 -10 -23 -12 -12 -14 -20 -6 -29 8 -9 8 -15 0 -20 -6 -3 -8 -11 -5 -16 4
-5 1 -9 -4 -9 -6 0 -11 -5 -11 -11 0 -5 4 -8 8 -5 5 3 9 -1 9 -8 0 -8 -5 -12
-11 -10 -7 3 -11 -12 -10 -41 1 -25 -2 -48 -7 -51 -14 -8 -11 -26 4 -19 6 4 5
1 -4 -7 -9 -7 -15 -22 -13 -33 2 -11 -5 -29 -14 -40 -16 -19 -16 -19 1 -6 15
12 17 12 11 -5 -4 -10 -10 -23 -13 -29 -3 -5 -5 -38 -6 -72 0 -34 -3 -64 -7
-68 -4 -4 -4 -13 -1 -21 3 -8 1 -14 -4 -14 -6 0 -9 -16 -8 -35 1 -19 -2 -35
-7 -35 -4 0 -8 -5 -8 -11 0 -5 5 -7 12 -3 6 4 5 -2 -3 -13 -12 -17 -14 -85
-12 -399 2 -331 5 -419 14 -419 1 0 3 -112 4 -250 1 -137 7 -269 12 -292 6
-23 10 -69 9 -102 -1 -34 2 -61 7 -61 4 0 5 -5 2 -10 -4 -6 -2 -16 3 -23 7 -9
10 -465 3 -499 -2 -10 -55 -5 -63 7 -4 5 -73 9 -155 10 -120 1 -152 -2 -167
-15 -11 -8 -16 -9 -12 -2 9 15 -10 16 -19 1 -4 -6 -13 -8 -21 -5 -7 3 -16 1
-19 -5 -4 -5 -14 -8 -23 -7 -9 2 -16 -2 -15 -9 2 -8 -4 -10 -14 -6 -11 4 -14
3 -9 -5 5 -8 2 -10 -8 -6 -11 4 -16 0 -16 -12 0 -11 -4 -15 -8 -9 -12 17 -35
17 -29 0 5 -10 0 -15 -13 -15 -11 0 -20 -4 -20 -9 0 -4 -12 -7 -26 -5 -18 2
-24 -2 -20 -11 2 -7 -2 -16 -10 -19 -10 -4 -13 -2 -8 7 6 9 5 9 -8 0 -8 -7
-19 -9 -23 -5 -5 4 -5 2 -2 -4 6 -11 -36 -30 -55 -26 -5 1 -8 -5 -8 -13 0 -8
-3 -14 -7 -14 -13 3 -73 -25 -73 -33 0 -4 -7 -5 -15 -2 -8 4 -17 -1 -21 -10
-3 -9 -10 -14 -14 -11 -4 3 -7 -3 -6 -13 1 -12 -6 -17 -22 -16 -15 0 -19 -3
-13 -9 11 -11 -26 -50 -39 -42 -4 3 -11 -2 -14 -11 -3 -8 -2 -12 4 -9 6 3 10
1 10 -5 0 -6 -8 -10 -17 -9 -31 3 -36 -1 -23 -16 11 -13 10 -14 -5 -8 -15 5
-17 3 -12 -12 6 -15 5 -16 -8 -5 -9 7 -15 9 -14 4 4 -21 -2 -34 -16 -34 -8 0
-14 -3 -12 -8 1 -4 -8 -17 -20 -29 -15 -15 -20 -29 -16 -40 6 -15 4 -16 -9 -5
-13 11 -16 10 -14 -5 0 -10 -5 -17 -11 -16 -7 2 -12 0 -12 -5 4 -26 -3 -52
-15 -52 -8 0 -16 -10 -18 -22 -2 -13 -8 -22 -14 -21 -6 1 -11 -4 -11 -12 0 -8
5 -12 11 -9 6 3 -2 -7 -19 -21 -16 -15 -25 -24 -18 -21 6 4 14 2 17 -3 4 -5
-2 -12 -13 -16 -13 -4 -17 -12 -13 -27 3 -13 1 -19 -5 -15 -6 4 -13 0 -17 -8
-3 -8 0 -15 7 -15 7 0 4 -5 -6 -11 -9 -6 -15 -14 -12 -19 3 -5 1 -11 -5 -15
-5 -3 -10 -11 -10 -16 0 -6 5 -7 12 -3 7 4 8 3 4 -4 -4 -7 -14 -12 -22 -12 -8
0 -14 -5 -14 -11 0 -5 6 -7 13 -3 6 4 4 -2 -6 -13 -10 -11 -15 -27 -11 -36 4
-10 0 -19 -9 -23 -9 -3 -13 -12 -10 -20 3 -9 -2 -14 -13 -15 -11 0 -14 -3 -8
-5 11 -5 -3 -83 -17 -94 -4 -3 -10 -24 -14 -47 -4 -24 -11 -46 -16 -49 -6 -3
-5 -12 3 -22 7 -9 8 -13 2 -9 -7 4 -14 -2 -17 -13 -3 -11 -1 -22 4 -25 4 -3 4
-16 -1 -29 -5 -15 -5 -27 3 -35 6 -6 7 -11 1 -11 -5 0 -10 -9 -10 -20 0 -11 4
-20 8 -20 5 0 4 -10 -3 -21 -9 -17 -8 -20 3 -13 11 6 11 5 -1 -9 -12 -15 -9
-21 10 -19 4 1 5 -8 2 -18 -3 -12 0 -20 7 -20 7 0 10 -8 7 -20 -3 -11 -1 -20
5 -20 6 0 8 -9 5 -20 -3 -11 -2 -18 3 -15 4 3 10 -2 14 -10 3 -8 0 -15 -7 -15
-7 0 -4 -7 7 -15 10 -8 16 -21 13 -29 -3 -8 1 -17 9 -20 8 -3 13 -9 12 -13 -1
-4 3 -18 10 -29 6 -12 8 -24 5 -28 -3 -3 -1 -6 5 -6 7 0 9 -7 5 -17 -5 -13 -2
-15 11 -10 9 4 15 3 11 -2 -9 -15 13 -60 43 -90 15 -16 28 -39 29 -52 1 -13 7
-25 13 -27 5 -2 10 -15 10 -28 0 -14 4 -23 9 -20 5 3 12 -1 15 -10 4 -10 2
-13 -7 -8 -8 6 -8 3 1 -8 8 -9 19 -16 25 -14 7 1 8 1 4 -2 -4 -2 -1 -15 8 -28
9 -14 14 -28 11 -33 -3 -4 6 -13 19 -19 25 -12 34 -32 14 -32 -6 0 -1 -11 12
-24 12 -13 24 -34 26 -47 2 -13 8 -26 15 -30 6 -4 8 -11 4 -17 -3 -6 -1 -14 5
-18 6 -3 15 0 20 7 6 9 9 10 9 2 0 -6 -5 -15 -10 -18 -7 -4 -2 -15 13 -29 26
-24 45 -61 24 -50 -9 5 -8 3 1 -7 11 -12 14 -12 22 1 8 12 9 9 8 -10 -2 -15 2
-24 9 -23 7 2 10 -4 6 -13 -3 -9 -1 -19 6 -23 7 -4 13 -17 14 -29 0 -11 5 -18
9 -16 5 3 5 10 2 16 -4 6 -2 8 3 5 6 -4 8 -18 5 -32 -3 -18 0 -25 11 -25 8 0
17 -9 20 -21 4 -14 10 -18 19 -13 10 6 10 4 -1 -9 -12 -15 -11 -17 3 -17 14 0
21 -11 17 -32 0 -5 6 -8 15 -8 14 0 15 -3 3 -17 -7 -10 -10 -15 -5 -11 11 9
39 -19 31 -32 -4 -6 1 -7 12 -3 15 6 16 4 5 -9 -10 -13 -10 -18 -1 -24 8 -4 9
-3 5 4 -4 7 -2 12 4 12 6 0 13 -13 17 -30 3 -16 10 -30 15 -30 5 0 6 5 2 12
-4 7 -3 8 4 4 6 -4 9 -13 5 -21 -3 -8 0 -15 7 -15 7 0 10 -8 7 -20 -3 -11 -2
-18 3 -15 4 3 13 -2 20 -10 10 -12 9 -15 -6 -15 -17 0 -17 -1 1 -14 11 -8 23
-12 26 -10 4 2 5 -5 2 -16 -3 -12 0 -20 6 -20 7 0 9 5 5 12 -4 7 -3 8 4 4 6
-4 8 -14 5 -23 -5 -12 -3 -14 7 -8 9 5 11 4 6 -4 -4 -6 -2 -18 4 -26 6 -8 8
-20 4 -27 -6 -10 -5 -10 7 -1 15 12 14 14 22 -62 1 -14 8 -25 15 -25 15 0 16
-12 0 -28 -9 -9 -8 -13 5 -17 9 -4 14 -15 12 -26 -2 -10 1 -19 7 -19 7 0 7 -4
1 -12 -6 -7 -8 -32 -7 -55 3 -33 0 -43 -12 -43 -8 0 -12 -5 -9 -10 4 -6 12 -8
18 -4 7 3 4 -1 -7 -10 -10 -8 -15 -20 -11 -25 3 -6 -1 -14 -9 -17 -9 -3 -16
-15 -16 -25 0 -10 -7 -19 -15 -19 -13 0 -14 -4 -4 -21 8 -15 8 -19 0 -15 -6 4
-11 2 -11 -4 0 -6 -5 -8 -11 -4 -8 4 -9 0 -4 -15 5 -16 3 -20 -9 -15 -12 4
-15 2 -11 -9 4 -8 0 -21 -8 -28 -7 -8 -15 -18 -16 -24 -1 -5 -10 -9 -19 -8
-10 1 -11 0 -4 -3 19 -9 14 -30 -10 -48 -13 -9 -17 -14 -10 -11 6 3 12 1 12
-5 0 -6 -7 -13 -15 -16 -8 -4 -12 -10 -9 -15 3 -5 -2 -9 -10 -9 -9 0 -16 -5
-16 -11 0 -5 5 -7 11 -4 6 4 5 -2 -2 -13 -7 -12 -17 -18 -23 -15 -5 4 -7 -1
-2 -12 6 -16 4 -16 -10 -4 -16 13 -16 12 -5 -8 10 -20 9 -22 -5 -16 -12 4 -15
3 -10 -5 4 -7 2 -12 -4 -12 -6 0 -9 -4 -6 -9 3 -5 -2 -15 -11 -22 -14 -12 -16
-12 -8 0 6 10 4 12 -4 7 -7 -5 -10 -14 -7 -21 3 -8 -3 -19 -12 -27 -15 -12
-16 -11 -3 4 8 12 9 18 2 18 -6 0 -13 -11 -17 -25 -3 -14 -10 -22 -15 -19 -5
3 -9 0 -9 -6 0 -6 -4 -9 -9 -6 -10 6 -35 -20 -44 -47 -4 -10 -11 -16 -16 -13
-4 3 -17 -4 -27 -17 -16 -19 -17 -20 -1 -8 9 8 20 12 22 9 3 -3 -15 -16 -39
-29 -25 -13 -42 -27 -40 -31 8 -13 -11 -9 -25 4 -7 7 -12 9 -11 3 5 -24 -1
-34 -21 -30 -17 4 -19 2 -8 -11 10 -12 9 -13 -4 -8 -10 3 -20 -2 -27 -15 -6
-11 -14 -20 -18 -20 -20 3 -32 -3 -32 -16 0 -14 -12 -19 -33 -16 -4 0 -7 -5
-7 -11 0 -9 -4 -8 -10 2 -8 13 -10 12 -10 -4 0 -12 -5 -16 -15 -12 -10 3 -15
-1 -15 -12 0 -15 -2 -15 -10 -2 -8 13 -10 13 -10 -2 0 -11 -5 -15 -15 -12 -8
4 -15 1 -15 -4 0 -6 -9 -9 -20 -7 -11 2 -18 0 -15 -6 5 -8 -15 -14 -37 -10 -5
0 -8 -3 -8 -9 0 -5 -7 -6 -17 -3 -11 4 -14 3 -9 -5 4 -7 2 -13 -3 -13 -6 -1
-15 -3 -21 -4 -5 -1 -14 -3 -20 -4 -5 0 -10 -8 -10 -17 0 -8 -5 -12 -10 -9 -6
3 -10 1 -10 -5 0 -6 -4 -9 -9 -6 -5 4 -7 -3 -4 -14 3 -11 1 -20 -3 -20 -5 0
-9 -11 -9 -25 0 -14 4 -25 8 -25 4 0 3 -10 -4 -21 -9 -17 -8 -20 2 -14 9 6 11
3 6 -8 -3 -9 -1 -19 5 -23 7 -4 8 -3 4 4 -4 7 -2 12 3 12 6 0 11 -4 11 -9 0
-15 59 -19 64 -4 4 10 11 11 25 3 16 -8 21 -6 26 10 7 23 21 26 28 8 4 -10 6
-10 6 0 1 6 8 12 17 12 9 0 12 5 8 13 -5 8 -2 8 9 -2 11 -9 17 -10 17 -2 0 6
11 11 24 11 14 0 28 5 31 11 4 6 14 8 22 4 13 -4 14 -3 3 10 -11 13 -10 14 5
9 13 -5 16 -4 11 5 -6 8 -2 11 10 9 12 -2 18 2 16 10 -1 8 2 11 8 7 5 -3 10 0
10 7 0 10 2 10 9 -1 6 -9 11 -10 15 -2 4 6 20 11 35 11 15 0 37 9 49 20 24 23
37 26 26 8 -6 -10 -5 -10 8 -1 8 7 18 10 22 6 4 -4 4 0 1 8 -4 10 0 16 10 17
8 1 22 3 30 4 11 1 12 5 4 14 -8 9 -5 11 9 7 11 -2 23 1 27 8 6 8 4 10 -6 4
-8 -5 -11 -4 -6 1 5 5 13 10 18 10 5 1 14 2 20 3 5 0 7 5 4 11 -3 6 1 7 9 4 9
-4 18 1 22 10 3 9 10 13 15 10 5 -3 9 2 9 10 0 10 6 13 15 10 8 -4 17 1 21 10
3 9 10 13 15 10 5 -3 9 1 9 8 0 9 3 9 10 -2 9 -13 10 -13 11 0 1 8 1 18 0 23
-2 11 6 8 25 -10 16 -16 17 -16 12 -1 -7 18 15 43 30 34 12 -7 34 18 25 28 -4
4 1 4 11 0 14 -5 17 -4 12 4 -5 8 0 12 12 12 11 0 26 8 33 18 13 15 12 16 -3
3 -12 -8 -18 -9 -18 -2 0 6 11 13 24 17 14 3 27 12 30 21 3 8 11 11 18 7 8 -5
9 -2 5 9 -4 11 -2 14 9 10 19 -7 46 17 39 35 -5 13 -3 13 11 1 16 -13 16 -12
5 9 -12 22 -11 23 7 13 14 -8 19 -7 20 5 1 7 3 20 4 28 1 8 11 13 24 11 20 -2
22 0 13 17 -10 18 -9 19 13 7 21 -11 22 -11 9 5 -12 14 -12 16 4 9 15 -5 17
-3 12 11 -5 14 -3 17 8 12 9 -3 15 0 15 9 0 8 7 15 15 15 9 0 12 6 8 17 -4 10
-2 14 5 9 6 -3 13 3 17 14 3 11 11 20 16 20 6 0 7 -5 3 -12 -4 -7 -3 -8 5 -4
6 4 9 12 6 17 -4 5 -1 9 5 9 6 0 8 5 5 10 -3 6 -1 10 4 10 6 0 11 9 11 20 0
11 5 20 11 20 5 0 7 -5 3 -12 -5 -7 -3 -8 5 -4 7 5 10 14 7 22 -3 8 1 14 10
14 8 0 18 8 21 18 4 9 13 22 21 28 9 7 12 16 7 24 -5 9 -4 11 3 6 7 -4 12 -2
12 4 0 6 4 9 9 5 5 -3 13 0 17 6 4 8 3 9 -4 5 -7 -4 -12 -2 -12 3 0 6 5 11 10
11 6 0 10 7 10 15 0 8 5 15 11 15 5 0 8 4 4 9 -3 5 1 16 9 24 11 11 12 17 3
26 -8 8 -6 11 9 11 16 0 17 2 4 10 -13 8 -13 10 2 10 11 0 15 5 12 15 -4 8 -1
15 5 15 6 0 8 7 5 15 -4 9 0 15 7 15 11 0 11 3 -1 10 -12 8 -12 10 -1 10 9 0
12 8 9 25 -3 14 -2 28 3 30 4 3 4 19 -1 35 -6 20 -5 30 2 30 7 0 6 5 -1 14 -7
9 -8 17 -2 20 10 7 4 44 -11 63 -6 7 -4 14 3 19 9 5 7 11 -6 21 -14 9 -15 13
-4 13 10 1 9 3 -3 11 -10 5 -18 15 -18 20 0 6 6 7 13 3 9 -6 9 -5 1 7 -10 12
-22 59 -26 107 -1 6 -6 12 -11 12 -6 0 -7 3 -4 7 4 3 2 12 -4 20 -9 10 -8 13
2 13 10 1 9 4 -3 14 -10 7 -15 16 -11 19 3 4 0 13 -7 22 -7 8 -9 15 -6 15 4 0
0 7 -9 16 -9 9 -14 22 -11 29 3 8 -2 16 -9 19 -9 3 -12 12 -8 22 4 11 3 15 -5
10 -6 -3 -13 -2 -17 4 -3 5 0 10 7 10 9 1 8 4 -3 13 -9 7 -15 20 -13 29 1 9
-4 22 -12 29 -8 6 -11 16 -7 22 4 6 1 7 -6 3 -9 -6 -8 -13 6 -29 18 -22 18
-22 -4 -4 -12 11 -20 27 -18 38 2 10 -1 22 -7 25 -7 5 -8 2 -3 -7 6 -10 5 -11
-3 -4 -7 6 -13 23 -14 37 -1 15 -6 24 -10 22 -4 -3 -9 2 -9 10 -1 9 -2 21 -3
27 0 6 -10 17 -20 25 -11 8 -17 14 -13 14 5 0 2 6 -5 14 -7 8 -17 11 -23 8 -5
-3 -5 1 1 9 9 11 8 17 -4 29 -9 8 -18 14 -20 12 -2 -2 -7 0 -10 4 -4 4 -1 4 6
0 16 -10 15 2 -2 19 -7 8 -17 11 -20 7 -4 -3 -4 1 0 11 3 10 1 17 -6 17 -6 0
-8 5 -4 12 5 8 2 9 -9 5 -9 -3 -19 -1 -23 5 -4 7 -3 8 4 4 7 -4 12 0 12 10 0
10 -3 15 -6 11 -9 -9 -34 19 -34 37 0 9 -8 16 -20 16 -12 0 -20 7 -20 18 0 14
2 15 10 2 5 -8 10 -10 10 -5 0 14 -37 45 -44 38 -3 -3 -4 4 -1 15 2 14 -1 19
-10 16 -10 -4 -12 1 -8 18 3 14 1 18 -4 12 -5 -8 -14 -4 -28 15 -15 21 -16 23
-2 12 15 -12 17 -12 11 3 -3 9 -13 16 -21 16 -8 0 -12 4 -9 9 3 4 -3 19 -14
31 -25 28 -26 37 -2 19 15 -13 16 -12 3 4 -8 10 -20 16 -28 13 -8 -4 -11 -1
-8 5 4 6 -1 17 -11 24 -11 9 -14 14 -6 15 17 0 15 20 -2 20 -8 0 -17 7 -20 16
-3 8 -2 13 3 10 5 -4 7 3 4 14 -4 16 -9 18 -19 9 -10 -9 -12 -6 -9 12 3 12 0
28 -6 36 -6 7 -9 19 -6 27 4 9 -3 17 -16 21 -14 4 -17 8 -9 12 9 4 10 8 2 18
-10 12 -21 46 -22 73 -1 6 -4 12 -7 12 -4 0 -8 11 -9 26 -1 17 2 23 11 19 6
-4 5 -1 -4 7 -21 18 -29 42 -19 59 5 8 4 19 -2 26 -6 7 -6 13 -1 13 5 0 6 24
3 56 -3 30 -3 57 1 60 5 3 5 12 2 20 -3 9 0 20 8 25 12 7 12 9 -1 9 -13 1 -13
2 0 13 21 16 45 71 28 61 -10 -6 -9 -3 0 9 8 9 11 21 7 27 -4 6 -3 10 2 9 19
-3 22 2 14 25 -7 17 -5 28 7 41 9 10 12 15 6 12 -6 -3 -11 0 -11 8 0 8 3 13 6
11 3 -2 12 2 19 10 8 9 9 14 2 14 -6 0 -8 5 -5 11 4 6 13 8 20 5 8 -3 11 2 8
13 -2 10 3 25 12 35 12 12 13 16 3 16 -8 1 -5 7 8 18 11 10 19 23 16 30 -2 7
2 10 12 6 12 -4 15 -2 10 9 -3 8 0 18 7 23 8 4 10 3 5 -4 -4 -7 -2 -12 3 -12
6 0 11 10 11 21 0 16 5 20 20 16 10 -3 19 -2 18 2 -3 15 15 40 25 34 6 -4 8 0
4 10 -3 9 0 18 9 21 9 3 12 11 8 17 -4 8 -3 9 5 5 9 -6 9 -12 -1 -24 -12 -15
-11 -16 5 -3 9 7 17 20 17 28 0 9 6 13 14 10 10 -4 13 -1 10 7 -3 8 0 17 5 21
6 3 8 11 5 17 -4 7 -2 8 5 4 7 -5 9 -13 4 -20 -4 -7 0 -4 9 7 10 10 22 16 27
12 6 -3 8 3 6 15 -2 12 0 18 6 14 5 -3 17 0 26 8 14 11 16 11 9 -2 -4 -8 1 -4
12 9 13 16 21 20 26 12 4 -6 12 -9 17 -5 5 3 7 9 4 14 -3 5 4 7 16 5 17 -3 19
-2 9 10 -9 11 -7 12 8 8 11 -2 23 1 27 8 6 8 4 10 -6 4 -12 -8 -12 -6 0 8 15
18 26 23 16 7 -3 -5 -2 -10 4 -10 5 0 13 5 16 10 4 6 11 8 16 5 5 -4 9 -1 9 5
0 6 5 8 10 5 6 -3 10 -1 10 6 0 8 4 8 15 -1 12 -10 16 -9 21 3 3 9 14 14 24
12 10 -2 21 3 24 10 3 8 14 12 26 10 18 -4 20 -2 9 11 -10 12 -9 13 6 8 11 -5
16 -4 12 3 -3 5 0 10 8 10 8 0 12 -4 9 -9 -3 -5 11 1 31 12 20 11 33 15 29 8
-6 -10 -4 -11 7 0 7 6 16 12 19 12 4 0 7 -194 6 -430 -1 -274 3 -431 9 -433 6
-2 10 -89 11 -225 0 -136 4 -226 11 -234 6 -8 10 -76 9 -175 -1 -88 3 -159 8
-156 4 3 5 -5 1 -17 -4 -13 -3 -20 2 -17 6 4 9 -29 8 -79 -1 -46 3 -84 8 -84
5 0 3 -8 -4 -17 -12 -14 -12 -16 2 -11 13 5 15 -7 15 -88 -1 -80 1 -93 14 -89
12 5 12 4 3 -6 -7 -7 -9 -18 -4 -28 5 -9 8 -55 7 -103 -2 -73 1 -88 14 -89 10
0 11 -2 3 -6 -9 -3 -10 -10 -4 -21 4 -9 7 -34 6 -54 -1 -21 1 -38 4 -38 7 0
10 -19 13 -95 2 -29 7 -45 15 -45 7 0 13 -5 13 -11 0 -5 -6 -7 -12 -3 -10 6
-10 5 -1 -8 7 -8 10 -18 6 -21 -3 -4 -2 -7 4 -7 11 0 11 -1 16 -80 1 -30 7
-62 12 -70 5 -8 10 -33 10 -55 0 -22 3 -44 6 -50 3 -5 5 -19 5 -30 -1 -11 6
-25 14 -31 12 -10 12 -14 0 -30 -8 -10 -10 -15 -3 -11 7 4 17 -5 27 -23 8 -17
10 -28 5 -25 -5 3 -6 -1 -3 -9 3 -9 11 -13 17 -9 6 4 8 0 4 -10 -4 -11 -1 -17
8 -17 8 0 15 -4 15 -10 0 -5 7 -10 15 -10 8 0 15 -3 15 -8 0 -10 103 -9 111 1
3 4 16 9 27 10 12 1 22 5 22 10 0 4 5 5 10 2 6 -3 10 -1 10 5 0 6 5 8 12 4 8
-5 9 -2 5 10 -5 12 -2 16 10 14 9 -2 17 5 19 16 1 10 8 24 15 30 9 8 10 8 5
-1 -4 -7 -2 -13 3 -13 11 0 15 15 12 34 -1 5 6 3 15 -5 16 -13 16 -12 4 10
-11 21 -10 23 3 18 9 -3 18 1 21 9 9 22 7 26 -6 18 -7 -4 -8 -3 -4 5 4 6 12 9
17 6 5 -4 9 -1 9 5 0 6 5 8 13 4 7 -5 6 0 -3 11 -14 17 -13 18 2 12 13 -4 16
-1 13 13 -2 11 1 19 8 17 7 -1 11 6 11 15 -1 10 1 18 5 18 4 0 16 7 27 16 19
15 19 16 -1 10 -20 -6 -20 -6 0 9 11 9 25 13 32 11 17 -7 16 -1 -3 18 -14 15
-13 16 6 16 15 0 20 5 17 14 -7 17 16 39 28 28 5 -4 5 -2 1 5 -3 6 -2 14 4 18
6 4 8 11 4 16 -3 5 0 8 8 7 7 -2 12 4 10 14 -2 12 2 16 13 12 8 -3 15 -2 15 4
0 6 -6 13 -12 15 -8 3 -6 6 4 6 10 1 17 7 15 13 -1 7 3 12 9 11 6 -1 11 4 11
12 0 8 -4 12 -9 9 -4 -3 -8 0 -8 5 0 10 14 15 33 12 4 -1 3 8 -3 19 -6 11 -7
20 -2 20 4 0 17 7 28 16 19 15 19 16 -1 9 -17 -5 -17 -3 5 18 14 14 30 22 35
19 6 -3 1 5 -9 17 -16 17 -16 20 -4 16 9 -4 19 -2 23 4 3 6 1 11 -4 11 -6 0
-3 8 7 18 9 11 20 17 24 15 3 -1 4 6 1 17 -3 12 1 22 11 26 9 3 16 12 16 20 0
8 4 14 10 14 5 0 7 7 3 16 -4 10 2 17 17 21 16 4 18 8 8 14 -10 7 -11 9 0 9 8
0 10 5 6 12 -5 7 -2 9 8 6 8 -4 20 2 26 13 8 12 8 19 2 19 -5 0 -10 -5 -10
-12 0 -6 -3 -8 -7 -4 -4 4 5 17 20 30 15 13 27 31 27 40 0 11 5 14 12 10 8 -5
9 -2 4 11 -5 14 -4 16 8 6 11 -9 15 -7 20 13 3 13 15 26 26 29 11 3 20 9 19
14 -3 20 2 27 11 13 7 -11 10 -11 10 -2 0 7 5 10 11 6 7 -4 6 2 -2 17 -11 22
-11 23 4 11 14 -12 16 -11 12 7 -3 19 -1 20 17 10 15 -8 19 -8 14 0 -4 6 -1
11 6 11 9 0 9 3 -2 10 -13 9 -7 14 13 11 4 0 7 4 7 10 0 5 4 8 8 5 5 -3 22 9
38 27 l29 32 -32 -29 c-18 -17 -33 -26 -33 -22 0 17 55 57 73 52 12 -3 21 3
27 20 5 13 12 24 15 24 4 0 3 -5 -1 -12 -5 -8 -3 -8 7 -2 19 12 119 13 112 1
-4 -6 3 -8 15 -5 14 4 20 2 15 -5 -4 -6 2 -8 15 -5 12 4 20 3 17 -2 -3 -4 2
-13 10 -20 10 -9 15 -9 15 -1 0 6 4 11 10 11 5 0 7 -7 4 -15 -5 -11 -2 -13 10
-9 11 4 16 1 16 -12 0 -16 2 -17 10 -4 8 13 10 13 10 -2 0 -12 5 -16 18 -11 9
3 14 3 10 -2 -10 -11 20 -38 36 -32 9 4 13 -2 12 -16 -1 -15 6 -23 21 -25 12
-2 27 -11 34 -20 11 -14 11 -15 -1 -4 -8 6 -19 12 -24 12 -6 0 0 -7 12 -16 12
-8 28 -12 35 -8 7 5 6 0 -3 -11 -9 -11 -10 -16 -2 -11 8 5 12 1 13 -11 0 -10
3 -13 6 -6 3 10 7 10 18 0 9 -9 10 -14 1 -20 -6 -5 -2 -7 12 -4 20 5 22 3 10
-11 -10 -12 -10 -14 0 -8 8 4 12 1 12 -10 0 -13 3 -14 13 -5 10 8 14 7 15 -4
1 -8 3 -21 4 -29 1 -8 8 -12 16 -8 10 3 13 1 8 -6 -5 -8 -1 -10 10 -5 12 4 15
3 10 -5 -4 -7 -2 -12 4 -12 6 0 8 -5 4 -12 -5 -8 -2 -9 11 -5 14 6 16 3 12
-13 -3 -11 -2 -18 3 -15 4 2 15 -4 25 -15 10 -11 24 -20 31 -20 7 0 14 -10 16
-22 2 -16 9 -22 22 -20 12 2 16 -1 10 -9 -5 -9 -2 -10 11 -5 16 6 16 4 4 -11
-9 -11 -10 -14 -2 -9 9 4 13 1 13 -10 0 -13 3 -14 14 -5 12 10 14 8 12 -13 -2
-14 0 -23 4 -21 11 7 61 -50 53 -60 -5 -4 -3 -6 2 -2 6 3 21 -1 35 -10 14 -8
17 -12 7 -9 -11 3 -15 2 -12 -4 3 -6 15 -10 26 -10 10 0 19 -6 19 -13 0 -8 9
-22 20 -32 11 -10 17 -21 15 -25 -3 -5 5 -6 17 -3 19 4 20 3 8 -6 -13 -9 -12
-11 4 -11 14 0 16 -3 7 -13 -13 -17 -4 -28 17 -20 11 5 14 2 9 -10 -3 -9 -1
-19 5 -23 7 -4 8 -3 4 4 -4 7 -2 12 3 12 10 0 16 -22 12 -43 -1 -5 3 -6 8 -3
5 4 16 -3 24 -15 11 -15 16 -17 20 -7 3 7 6 3 6 -9 1 -13 6 -23 12 -23 8 0 8
-4 0 -14 -10 -12 -8 -13 10 -9 15 4 20 3 15 -5 -4 -7 -1 -12 8 -12 8 0 18 -5
22 -12 5 -7 2 -9 -7 -4 -9 5 -8 3 2 -6 8 -7 18 -21 22 -30 4 -12 12 -15 23
-11 13 5 16 3 11 -10 -4 -11 1 -20 13 -27 11 -6 20 -7 20 -3 0 4 5 0 11 -10 5
-9 8 -21 5 -25 -3 -5 1 -9 8 -9 8 0 12 7 9 16 -3 12 -2 12 7 -2 6 -9 9 -21 5
-26 -3 -5 0 -13 6 -17 8 -4 9 -3 5 4 -4 7 -2 12 3 12 6 0 11 -10 11 -21 0 -17
3 -19 14 -10 12 10 14 8 9 -11 -3 -16 -2 -19 5 -10 7 11 10 9 15 -7 3 -12 12
-21 21 -21 10 0 16 -8 16 -21 0 -17 3 -19 14 -10 12 10 14 8 9 -11 -3 -13 -1
-18 4 -12 5 8 16 3 33 -14 14 -14 17 -20 7 -12 -9 7 -20 10 -23 8 -3 -3 8 -12
25 -19 21 -9 26 -16 18 -22 -8 -6 -3 -7 11 -4 19 5 21 3 11 -9 -11 -14 -2 -20
25 -15 5 1 6 -5 2 -14 -3 -9 -2 -13 4 -10 5 3 18 1 27 -5 14 -9 14 -10 2 -7
-9 3 -16 -1 -16 -9 0 -7 4 -11 8 -9 14 9 39 -7 39 -26 0 -13 7 -19 21 -19 15
0 19 -4 15 -16 -4 -11 1 -18 15 -21 12 -4 18 -11 15 -20 -3 -8 -2 -11 3 -8 5
3 17 -5 25 -17 9 -12 16 -18 16 -14 0 5 -8 19 -17 30 -9 12 -3 8 14 -9 20 -20
27 -33 19 -38 -6 -5 -2 -7 12 -4 19 5 21 3 11 -9 -9 -11 -8 -14 9 -14 11 0 26
-8 33 -17 13 -16 12 -17 -4 -4 -9 8 -20 11 -23 9 -3 -3 8 -12 25 -19 21 -9 26
-16 18 -22 -8 -6 -4 -7 10 -4 19 4 21 2 13 -13 -8 -15 -6 -17 10 -13 12 3 20
0 20 -6 0 -7 -5 -9 -12 -5 -7 4 -8 3 -4 -5 4 -6 12 -9 17 -6 5 4 17 1 26 -5
14 -9 14 -10 2 -7 -9 3 -16 -1 -16 -8 0 -7 5 -11 11 -9 16 6 33 -8 38 -31 2
-13 10 -19 22 -17 14 3 17 -1 12 -13 -4 -12 0 -19 15 -22 11 -3 18 -11 16 -18
-3 -6 1 -12 9 -12 7 0 11 4 8 9 -3 4 -3 8 1 8 6 0 29 -51 27 -61 -1 -3 10 -5
24 -3 22 2 23 0 12 -14 -7 -9 -8 -13 -2 -9 7 4 15 0 18 -9 4 -9 13 -14 21 -10
13 4 14 2 5 -14 -6 -11 -7 -20 -3 -19 28 5 42 -2 36 -18 -4 -10 -2 -14 4 -10
6 4 13 0 17 -8 3 -8 10 -15 16 -15 6 0 18 -6 26 -14 11 -11 11 -16 1 -20 -6
-4 -2 -4 11 -2 19 4 21 2 11 -10 -9 -11 -7 -14 12 -14 19 0 21 -2 9 -10 -12
-8 -11 -10 8 -10 12 0 21 -5 20 -12 -2 -7 12 -17 31 -24 20 -6 29 -13 21 -16
-9 -3 -2 -10 18 -19 18 -8 30 -19 28 -26 -3 -7 0 -15 6 -19 7 -4 8 -3 4 4 -4
7 -2 12 3 12 10 0 15 -20 13 -41 -1 -4 8 -4 20 -1 17 4 20 2 15 -11 -4 -11 1
-21 18 -29 13 -7 24 -17 24 -22 0 -6 8 -11 18 -12 10 -2 19 -8 21 -14 2 -5 8
-8 13 -4 13 8 11 52 -3 57 -10 4 -10 6 0 6 6 1 12 6 12 11 0 6 -6 9 -12 8 -8
-2 -12 7 -11 25 1 18 -2 25 -10 20 -6 -3 0 9 13 27 13 18 17 30 9 25 -12 -8
-12 -6 0 8 9 12 10 17 2 17 -9 0 -9 5 0 21 9 17 8 20 -2 14 -9 -6 -11 -3 -6 8
3 9 1 20 -6 24 -17 11 -45 49 -30 39 9 -5 11 -2 7 8 -3 9 -11 16 -17 16 -6 0
-7 3 -4 7 4 3 1 13 -6 21 -10 13 -9 14 3 7 8 -5 5 4 -8 19 -12 16 -19 32 -16
37 3 5 -2 9 -12 9 -13 0 -14 3 -4 15 10 12 9 15 -4 15 -11 0 -14 5 -10 12 4 6
-1 17 -11 24 -10 8 -15 20 -11 29 3 9 2 13 -4 10 -9 -6 -14 8 -11 28 0 4 -4 7
-10 7 -5 0 -7 5 -4 10 3 6 -1 10 -11 10 -13 0 -14 3 -4 15 9 10 9 15 1 15 -6
0 -11 9 -11 20 0 11 -6 20 -12 20 -9 0 -8 4 2 10 13 9 13 10 0 11 -8 1 -19 1
-25 -1 -5 -1 -4 4 3 11 6 7 12 17 12 21 0 4 -6 7 -12 6 -7 -2 -12 5 -10 14 2
10 -3 18 -11 18 -10 0 -13 8 -9 25 3 18 0 25 -9 23 -9 -2 -13 4 -11 14 2 11
-3 18 -12 18 -9 0 -13 6 -10 15 6 15 -19 48 -30 40 -3 -3 -2 1 4 7 15 18 12
31 -6 24 -12 -5 -14 -1 -9 15 4 12 3 19 -2 16 -5 -3 -9 3 -9 13 0 14 7 18 31
16 16 -1 40 2 53 6 13 4 21 4 18 -1 -6 -10 77 -7 93 3 6 4 11 4 11 -1 0 -4 58
-8 129 -8 75 0 127 4 123 9 -3 5 5 7 16 4 14 -4 20 -2 15 5 -4 6 2 8 15 5 12
-4 25 -2 28 3 3 5 10 7 15 3 14 -8 119 18 120 30 0 6 4 2 9 -9 7 -16 9 -17 9
-3 1 11 8 15 26 13 14 -1 25 2 25 8 0 5 9 7 20 4 11 -3 23 -1 26 5 3 5 15 8
25 5 10 -3 22 0 26 5 4 7 1 8 -7 3 -8 -5 -11 -4 -7 2 4 6 18 8 32 5 15 -2 25
0 25 7 0 7 5 9 10 6 6 -3 10 -1 10 4 0 6 5 11 11 11 5 0 7 -5 3 -11 -3 -6 6
-3 22 7 15 11 25 13 21 7 -6 -9 -3 -11 7 -7 9 3 16 10 16 15 0 5 5 9 11 9 5 0
7 -6 3 -12 -6 -10 -5 -10 8 -1 8 7 18 10 21 6 4 -3 7 -1 7 7 0 10 4 10 17 -1
11 -10 14 -10 9 -1 -4 7 -1 12 9 12 10 0 13 5 9 12 -5 8 -2 9 10 5 10 -4 15
-3 11 3 -3 6 -1 10 5 10 6 0 8 6 4 13 -6 9 -4 9 7 -1 16 -15 33 -16 23 -1 -3
6 1 10 12 9 43 -5 56 0 50 16 -5 14 -4 15 8 5 11 -10 17 -8 25 6 6 10 11 14
11 9 0 -6 7 -1 16 10 8 10 12 12 8 4 -7 -12 -5 -13 8 -3 8 7 18 10 21 6 4 -3
7 -1 7 6 0 9 9 12 24 9 18 -4 23 -1 18 10 -4 12 0 14 16 10 12 -4 25 -1 29 4
4 7 1 8 -7 3 -9 -5 -11 -4 -6 3 4 7 18 12 32 12 16 0 28 8 34 23 5 12 9 15 9
7 1 -10 6 -7 17 8 11 17 21 21 37 16 12 -3 19 -3 15 1 -4 4 -2 13 5 20 9 10
14 9 24 -4 11 -14 12 -13 8 6 -3 16 0 20 11 16 8 -3 14 1 14 11 0 9 5 16 11
16 5 0 7 -4 4 -10 -3 -6 1 -7 9 -4 9 3 14 10 13 14 -1 4 1 7 5 6 4 0 15 9 24
22 10 14 22 21 31 17 13 -4 14 -3 3 10 -11 13 -10 14 4 9 10 -4 18 0 23 12 6
16 7 16 14 -2 7 -17 8 -17 8 -1 1 12 5 16 14 11 9 -6 9 -5 -1 8 -10 13 -9 18
5 29 11 9 14 10 9 2 -4 -7 -2 -13 3 -13 6 0 11 5 11 11 0 5 6 7 13 3 8 -5 7
-2 -2 9 -12 15 -12 17 1 12 18 -7 42 20 32 36 -5 8 -3 9 5 5 14 -9 53 22 45
35 -3 5 0 9 6 9 6 0 8 5 4 13 -5 7 -1 7 12 -3 10 -8 16 -11 12 -6 -4 4 5 19
20 32 23 20 25 25 12 34 -8 5 -10 10 -4 10 5 0 16 -6 23 -13 10 -10 11 -8 5 7
-4 11 -3 17 2 14 9 -5 47 29 53 47 4 16 11 19 11 6 0 -7 5 -9 11 -5 8 5 10 -1
7 -20 -3 -14 -1 -29 3 -32 5 -3 4 -14 -1 -24 -8 -16 -7 -18 4 -14 10 4 14 0
12 -13 -2 -10 0 -30 5 -45 4 -17 3 -28 -3 -30 -6 -2 -3 -11 6 -21 13 -12 14
-17 4 -17 -11 0 -10 -2 1 -9 9 -6 12 -25 10 -64 -2 -30 -2 -55 1 -55 18 1 21
-4 11 -16 -9 -11 -8 -15 5 -20 13 -5 14 -9 4 -21 -7 -8 -9 -15 -4 -15 5 0 9
-15 8 -32 -1 -18 3 -36 8 -39 5 -3 10 -27 11 -53 0 -25 5 -46 9 -46 4 0 8 -24
8 -53 0 -29 6 -59 13 -66 9 -11 9 -13 0 -7 -7 4 -13 2 -13 -3 0 -6 5 -11 10
-11 6 0 10 -9 10 -21 0 -13 4 -18 13 -13 8 5 8 2 -2 -9 -9 -11 -10 -17 -2 -17
6 0 11 -17 11 -40 0 -25 5 -40 13 -40 9 0 9 -2 -1 -9 -11 -7 -10 -9 3 -15 9
-3 13 -11 10 -16 -4 -6 4 -19 17 -30 18 -16 20 -21 9 -29 -11 -7 -9 -10 7 -15
11 -4 23 -14 26 -22 3 -8 2 -12 -4 -9 -6 3 -10 1 -10 -4 0 -6 9 -11 19 -11 11
0 23 -5 27 -12 4 -7 3 -8 -4 -4 -7 4 -12 3 -12 -2 0 -6 7 -13 16 -16 8 -3 12
-10 9 -16 -3 -5 -1 -10 5 -10 6 0 8 -5 4 -12 -5 -8 0 -7 11 2 10 8 16 10 12 3
-4 -6 -3 -14 3 -18 6 -4 8 -10 5 -15 -3 -4 3 -7 12 -5 10 2 20 4 23 4 3 1 4
48 2 106 -3 82 0 105 10 105 9 0 9 3 -2 10 -8 5 -10 10 -4 10 5 0 11 21 13 47
1 26 6 52 11 58 13 16 13 1385 0 1385 -5 0 -8 14 -6 30 2 17 0 33 -5 36 -4 2
-5 12 -2 21 5 12 3 14 -8 8 -12 -8 -12 -6 0 8 7 9 9 17 3 17 -5 0 -12 18 -14
40 -2 22 -1 40 2 40 3 0 4 36 2 80 -3 58 -7 78 -15 73 -8 -4 -7 -1 1 9 7 9 9
18 3 20 -5 1 -11 43 -12 91 -2 49 -8 91 -13 94 -5 4 -6 0 -1 -8 5 -8 -4 -1
-18 14 -15 15 -31 26 -36 22 -5 -3 -13 0 -17 6 -5 8 -3 9 6 4 8 -5 11 -4 7 2
-4 6 -16 13 -27 16 -13 3 -18 1 -13 -5 4 -7 1 -8 -8 -2 -8 5 -60 9 -117 9 -96
1 -103 0 -125 -24 -12 -13 -15 -21 -7 -17 8 4 4 -2 -10 -14 -14 -12 -19 -19
-12 -15 14 7 16 -7 3 -20 -13 -14 -18 -134 -6 -139 6 -3 3 -5 -5 -6 -8 -1 -25
-3 -37 -4 -12 -1 -20 1 -17 6 3 4 -4 8 -15 8 -11 0 -23 5 -26 10 -3 6 -16 10
-29 10 -12 0 -26 3 -30 7 -3 4 -14 9 -24 11 -29 7 -671 8 -667 1 4 -5 -9 -7
-88 -12 -15 -1 -25 -7 -23 -12 4 -12 -34 -13 -52 -1 -7 4 -12 3 -12 -2 0 -5
-14 -8 -30 -7 -17 1 -33 -1 -36 -6 -3 -5 -10 -9 -15 -9 -6 0 -7 5 -4 11 4 6
-2 5 -14 -3 -12 -7 -21 -20 -22 -28 0 -10 -2 -11 -6 -2 -5 13 -33 17 -33 4 0
-7 -22 -12 -60 -14 -8 0 -24 -8 -34 -17 -11 -9 -16 -10 -12 -3 4 6 2 12 -3 12
-6 0 -11 -6 -11 -13 0 -8 -13 -12 -35 -12 -24 1 -32 -2 -26 -9 6 -7 2 -11 -12
-12 -12 0 -31 -4 -41 -9 -15 -7 -18 -5 -12 6 4 8 1 6 -7 -3 -8 -10 -17 -15
-20 -11 -4 3 -7 0 -7 -8 0 -11 -2 -11 -10 1 -7 12 -10 12 -10 1 0 -7 -6 -11
-14 -8 -10 4 -13 1 -10 -7 3 -8 0 -17 -7 -22 -8 -4 -10 -3 -5 4 11 17 -9 15
-24 -3 -10 -12 -16 -13 -27 -4 -11 10 -12 8 -7 -6 5 -13 4 -16 -4 -11 -8 4
-12 0 -13 -11 0 -16 -1 -16 -9 2 -7 17 -9 17 -9 3 -1 -12 -9 -18 -27 -18 -14
0 -23 -4 -19 -10 5 -9 -16 -15 -38 -11 -5 1 -6 -3 -2 -9 3 -5 -1 -10 -10 -10
-9 0 -13 -4 -10 -10 3 -6 -1 -7 -9 -4 -9 3 -16 1 -16 -6 0 -6 -4 -8 -10 -5 -5
3 -10 -1 -10 -11 0 -14 -2 -15 -17 -3 -9 8 -14 10 -11 4 3 -5 -4 -19 -15 -30
-11 -11 -17 -14 -13 -7 10 17 0 15 -23 -5 -11 -9 -17 -21 -14 -27 4 -6 -1 -5
-10 2 -14 12 -16 11 -13 -5 3 -14 -1 -19 -17 -19 -13 1 -22 -5 -22 -14 0 -8
-8 -14 -18 -14 -15 2 -21 -7 -19 -27 1 -4 -7 -5 -17 -2 -10 3 -22 -1 -26 -8
-6 -8 -4 -10 6 -5 8 4 7 2 -2 -6 -9 -7 -16 -17 -17 -21 0 -5 -4 -12 -8 -15 -4
-4 -4 -1 0 6 4 6 2 12 -3 12 -6 0 -11 -6 -11 -14 0 -8 -5 -18 -12 -22 -7 -5
-9 -2 -4 7 4 8 1 5 -8 -5 -8 -10 -12 -24 -9 -30 4 -6 0 -5 -9 2 -13 10 -18 10
-24 1 -4 -8 -3 -9 4 -5 17 10 15 -9 -3 -24 -8 -6 -20 -8 -27 -4 -9 6 -9 3 1
-10 8 -9 10 -16 5 -15 -5 1 -15 1 -23 0 -11 -1 -11 -4 0 -18 13 -15 12 -15 -9
-4 -18 9 -22 9 -20 -1 2 -7 -2 -12 -9 -11 -7 2 -10 -4 -6 -13 4 -10 -2 -17
-17 -21 -16 -4 -18 -8 -8 -14 10 -7 10 -9 1 -9 -7 0 -13 -6 -13 -14 0 -8 -4
-18 -10 -21 -6 -3 -7 1 -4 12 5 17 5 17 -6 0 -6 -9 -8 -21 -5 -27 3 -5 -3 -7
-14 -5 -15 3 -18 -1 -15 -18 2 -12 2 -17 -2 -10 -4 8 -13 3 -29 -15 -18 -21
-21 -30 -12 -42 6 -8 8 -12 3 -8 -10 8 -51 -10 -42 -19 2 -3 -6 -15 -20 -28
-26 -24 -32 -40 -11 -30 6 4 4 0 -5 -8 -10 -8 -15 -17 -11 -20 3 -4 1 -7 -6
-7 -8 0 -11 -8 -8 -19 3 -14 1 -18 -9 -14 -12 4 -18 -6 -16 -28 1 -3 -6 -6
-14 -6 -8 0 -14 5 -14 11 0 6 -5 4 -10 -4 -7 -12 -10 -12 -10 -1 0 8 -6 11
-17 6 -15 -5 -16 -4 -5 6 6 7 12 17 12 23 0 5 -3 6 -6 3 -10 -10 -45 35 -40
50 4 8 -3 13 -17 13 -12 0 -17 4 -12 8 7 4 1 17 -14 32 -13 14 -20 19 -16 11
6 -10 4 -12 -4 -7 -9 6 -9 12 1 24 7 10 9 14 4 10 -10 -8 -36 15 -36 32 0 7
-7 9 -16 6 -14 -5 -15 -4 -4 9 7 9 10 18 6 22 -3 3 -6 1 -6 -5 0 -7 -5 -12
-11 -12 -5 0 -7 5 -4 10 3 6 1 10 -5 10 -6 0 -9 4 -5 9 3 5 0 13 -6 17 -7 4
-9 3 -5 -4 3 -6 2 -14 -4 -17 -6 -4 -10 -3 -9 2 4 25 -2 43 -13 37 -8 -5 -9
-2 -4 12 4 10 4 15 0 12 -3 -4 -12 -1 -19 5 -10 9 -10 15 -1 26 8 12 8 13 -1
7 -7 -4 -13 -2 -13 3 0 6 -7 11 -16 11 -11 0 -14 5 -10 16 5 14 4 15 -8 5 -11
-9 -16 -9 -22 0 -4 8 -3 9 4 5 7 -4 12 -3 12 1 0 5 -10 13 -22 18 -13 6 -28
21 -34 33 -6 13 -18 29 -25 35 -11 10 -11 9 -1 -4 9 -12 9 -16 -3 -16 -7 0
-14 3 -13 6 2 22 -4 41 -13 41 -5 0 -7 -5 -3 -12 4 -7 3 -8 -4 -4 -6 4 -9 13
-6 20 3 7 -3 19 -13 27 -17 13 -17 13 -3 -6 15 -19 15 -19 -11 0 -15 11 -25
23 -22 28 2 4 -1 7 -7 7 -7 0 -9 7 -6 16 5 14 4 15 -8 5 -11 -9 -16 -9 -22 0
-4 8 -3 9 4 5 7 -4 12 -2 12 3 0 6 -10 11 -21 11 -19 0 -20 2 -8 17 13 15 12
15 -9 4 -18 -9 -22 -9 -20 1 2 7 -5 13 -14 13 -9 0 -20 4 -25 9 -4 5 -3 6 5 2
16 -10 15 2 -2 20 -11 11 -16 11 -19 1 -3 -7 -6 -4 -6 6 -1 12 -5 16 -13 11
-8 -5 -8 -1 2 12 8 10 11 16 6 12 -4 -4 -18 3 -30 16 -11 12 -15 15 -8 6 6 -9
12 -21 12 -26 0 -4 -7 2 -16 14 -8 12 -19 20 -24 17 -4 -3 -6 4 -3 15 4 16 2
19 -12 13 -13 -4 -16 -3 -11 5 4 7 1 12 -8 12 -9 0 -16 7 -16 15 0 12 -4 13
-17 6 -15 -7 -18 -5 -20 16 -1 24 -17 43 -37 43 -6 0 -1 -6 10 -14 10 -8 17
-16 14 -19 -3 -2 -16 7 -30 21 -14 13 -19 22 -12 18 6 -4 12 -2 12 3 0 6 -5
11 -11 11 -5 0 -7 6 -3 13 6 9 4 9 -7 1 -10 -8 -19 -5 -36 13 -23 24 -17 32 7
11 12 -11 12 -10 1 5 -7 9 -22 17 -32 17 -10 0 -21 4 -24 10 -4 6 1 7 12 3 15
-6 16 -5 3 9 -8 9 -18 14 -23 11 -4 -2 -10 3 -13 12 -6 13 -8 14 -15 3 -7 -10
-9 -10 -9 0 0 6 -7 12 -15 12 -8 0 -15 5 -15 11 0 6 -7 9 -15 5 -8 -3 -15 -2
-15 3 0 4 -6 8 -12 9 -58 4 -75 12 -94 40 -17 24 -24 28 -34 19 -7 -7 -10 -7
-7 -1 3 5 -7 15 -24 21 -22 9 -27 8 -22 0 4 -7 -1 -5 -12 3 -14 12 -53 15
-196 16 -113 0 -176 -3 -172 -10 4 -5 -1 -7 -10 -3 -10 3 -17 3 -17 -2 0 -4
-16 -7 -34 -6 -19 1 -33 -2 -31 -6 5 -7 -52 -23 -72 -20 -7 1 -13 -2 -13 -8 0
-5 -13 -12 -30 -16 -16 -4 -30 -12 -30 -18 0 -8 -3 -7 -9 1 -6 11 -10 10 -15
-3 -4 -11 -12 -15 -22 -11 -14 5 -15 4 -5 -8 10 -12 8 -14 -13 -12 -23 3 -24
1 -14 -18 8 -17 8 -19 -2 -9 -11 10 -16 8 -25 -10 -6 -12 -17 -21 -25 -19 -7
2 -10 -3 -7 -12 8 -20 -3 -28 -20 -14 -11 9 -12 7 -7 -7 5 -13 4 -16 -5 -11
-8 6 -11 2 -9 -9 2 -10 -4 -20 -12 -22 -13 -4 -13 -3 0 6 10 7 11 11 3 11 -7
0 -17 -9 -23 -20 -6 -11 -16 -17 -22 -14 -7 4 -8 2 -4 -5 6 -9 11 -9 24 0 10
7 5 0 -11 -15 -15 -15 -25 -31 -22 -36 3 -6 -1 -7 -10 -4 -11 4 -14 2 -9 -9 3
-8 0 -18 -7 -23 -8 -5 -10 -3 -4 6 5 8 4 11 -3 7 -5 -4 -8 -17 -4 -30 5 -19 4
-20 -11 -9 -14 12 -16 11 -12 -8 3 -16 -1 -24 -15 -27 -11 -3 -17 -9 -14 -14
3 -5 11 -6 17 -2 7 4 6 0 -2 -10 -7 -9 -20 -17 -27 -17 -8 0 -14 -5 -14 -11 0
-5 5 -7 11 -3 6 3 3 -5 -6 -20 -10 -14 -22 -26 -27 -26 -5 0 -7 -4 -3 -9 3 -5
1 -12 -5 -16 -6 -4 -7 -11 -4 -17 5 -8 1 -9 -12 -4 -15 6 -17 5 -6 -6 10 -10
8 -16 -10 -31 -13 -10 -17 -16 -10 -12 6 3 12 1 12 -5 0 -6 -7 -13 -15 -16 -8
-4 -15 -10 -15 -16 0 -5 5 -6 12 -2 7 4 8 3 4 -4 -4 -7 -14 -12 -23 -12 -10 0
-14 -6 -10 -20 3 -13 0 -20 -9 -20 -12 0 -12 -4 -3 -21 7 -14 7 -19 0 -15 -9
6 -43 -44 -40 -60 0 -3 -3 -9 -7 -12 -4 -4 -4 -1 1 7 5 9 4 12 -3 7 -7 -4 -12
-16 -12 -26 0 -10 -5 -22 -10 -25 -6 -3 -10 -17 -10 -31 0 -14 -6 -27 -14 -30
-8 -3 -12 -12 -9 -20 3 -7 -2 -16 -10 -20 -9 -3 -13 -12 -10 -20 3 -7 -2 -17
-11 -20 -9 -3 -14 -10 -11 -14 3 -5 1 -11 -5 -15 -6 -4 -8 -11 -5 -16 4 -5 1
-9 -6 -9 -7 0 -10 -3 -6 -6 3 -4 0 -19 -8 -34 -8 -15 -11 -31 -7 -36 4 -5 -1
-3 -10 4 -14 11 -16 10 -11 -7 3 -14 0 -23 -11 -27 -9 -3 -16 -15 -16 -25 0
-11 -7 -19 -17 -20 -15 0 -15 -2 2 -8 19 -8 19 -8 -3 -15 -12 -4 -20 -11 -17
-16 3 -4 -3 -7 -12 -6 -10 2 -18 7 -18 12 0 5 -4 15 -9 23 -7 10 -6 12 3 6 10
-6 11 -3 2 12 -5 11 -10 28 -10 39 0 10 -2 54 -4 97 -2 42 0 77 4 77 9 0 6 20
-4 37 -4 6 -3 15 3 18 8 5 7 11 -1 21 -9 11 -9 17 0 28 9 10 9 16 1 21 -6 4
-7 12 -3 18 10 15 10 38 0 54 -4 6 -3 15 3 18 8 5 7 11 -1 21 -8 10 -9 18 0
27 6 8 8 17 4 20 -3 4 0 13 7 22 9 11 9 15 1 15 -7 0 -9 5 -6 10 4 6 10 8 15
5 5 -3 5 8 0 25 -5 16 -5 30 -1 30 4 0 4 25 1 56 -3 30 -3 57 2 60 4 3 3 14
-2 25 -6 10 -7 19 -2 19 4 0 5 25 2 56 -3 30 -3 57 2 60 4 3 3 14 -2 25 -6 10
-7 19 -3 19 4 0 6 52 3 116 -3 64 -2 118 3 121 4 2 2 13 -3 24 -6 11 -7 19 -1
19 5 0 6 14 1 35 -4 20 -4 38 1 41 5 3 5 13 -1 25 -6 11 -7 19 -1 19 5 0 6 14
1 35 -4 20 -4 38 1 41 5 3 5 13 -1 25 -6 10 -7 19 -3 19 4 0 6 43 3 96 -3 53
-2 98 3 101 4 2 2 13 -3 24 -7 12 -7 19 -1 19 6 0 9 6 6 13 -2 6 -6 28 -8 47
-7 50 -11 64 -21 72 -6 4 -6 12 0 20 10 13 11 54 1 64 -3 3 -1 19 3 35 5 17 5
31 -1 35 -6 4 -6 11 1 19 8 10 8 15 0 20 -8 5 -8 10 0 20 8 10 8 15 0 20 -8 5
-8 10 0 20 8 10 8 15 0 20 -7 5 -8 11 -1 19 6 7 6 18 1 26 -4 7 -4 24 0 36 6
14 5 26 0 29 -5 3 -5 18 -1 33 9 33 8 43 -3 60 -4 7 -4 18 1 25 10 13 10 54 0
63 -3 3 -1 19 3 35 5 17 5 31 -1 35 -6 4 -6 11 1 19 8 10 8 15 0 20 -8 5 -8
10 0 20 8 10 8 15 0 20 -8 5 -8 10 0 20 8 10 8 15 0 20 -7 5 -8 11 -1 19 6 7
6 18 1 26 -4 7 -4 24 0 36 6 14 5 26 0 29 -5 3 -5 18 -1 33 9 33 8 43 -3 60
-4 7 -4 18 1 25 10 13 10 54 0 63 -3 3 -1 19 3 35 5 17 5 31 -1 35 -6 4 -6 11
1 19 8 10 8 15 0 20 -8 5 -8 10 0 20 8 10 8 15 0 20 -8 5 -8 10 0 20 8 10 8
15 0 20 -7 5 -8 11 -1 19 6 7 6 18 1 26 -4 7 -4 24 0 36 6 14 5 26 0 29 -5 3
-5 18 0 35 11 38 11 42 -2 58 -7 7 -7 17 -1 25 10 12 10 54 0 63 -3 3 -1 19 3
35 5 17 5 31 -1 35 -6 4 -6 11 1 19 8 10 8 15 0 20 -8 5 -8 10 0 20 8 10 8 15
0 20 -8 5 -8 10 0 20 8 10 8 15 0 20 -8 5 -8 10 0 20 8 10 8 15 0 20 -8 5 -8
10 0 20 8 10 8 15 0 20 -8 5 -8 10 0 20 8 10 8 15 0 20 -8 5 -8 10 0 20 8 10
8 15 0 20 -7 5 -8 11 -1 19 6 7 6 18 1 26 -4 7 -4 24 0 36 6 14 5 26 0 29 -5
3 -5 18 -1 33 4 15 6 40 4 55 -2 17 0 26 6 23 6 -4 8 2 6 14 -2 11 0 20 5 20
5 0 5 13 0 30 -5 17 -6 30 -2 30 4 0 5 43 2 96 -3 53 -2 98 3 101 4 2 2 13 -3
24 -6 11 -7 19 -1 19 5 0 6 14 1 35 -4 19 -4 37 0 40 5 3 6 15 2 27 -3 13 -1
19 5 15 7 -5 9 1 5 15 -4 15 -2 19 7 13 10 -6 11 -3 2 12 -7 14 -7 23 1 31 7
7 8 12 4 12 -5 0 -2 8 5 17 12 14 12 15 1 9 -11 -7 -12 -4 -3 12 6 11 11 39
11 62 0 25 4 39 10 35 6 -3 10 -2 10 4 0 5 -5 13 -12 17 -7 5 -5 11 7 21 11 7
16 13 12 13 -4 0 -3 8 2 18 10 18 22 73 25 110 0 12 5 22 9 22 5 0 5 5 2 10
-3 6 -1 10 6 10 8 0 7 5 -2 17 -8 9 -9 14 -3 10 15 -9 23 77 10 100 -6 10 -5
14 2 9 6 -3 13 -2 16 3 4 5 1 13 -4 16 -7 5 -5 11 6 19 11 9 13 15 6 20 -7 4
-8 17 -2 36 5 17 9 33 10 37 1 3 -3 9 -9 12 -10 6 -17 49 -24 141 -1 14 -8 29
-15 33 -7 5 -10 12 -7 18 4 5 -2 9 -12 10 -16 0 -16 1 1 8 18 7 18 8 3 14 -10
4 -17 17 -17 32 0 15 -4 24 -9 21 -5 -3 -12 1 -15 10 -4 10 -2 13 7 9 6 -4 1
3 -13 15 -14 12 -19 19 -12 15 12 -6 12 -4 0 15 -7 12 -18 31 -24 41 -6 10
-14 16 -17 12 -4 -3 -7 -1 -7 4 0 6 6 14 13 16 7 4 3 8 -10 12 -13 4 -20 11
-17 16 3 5 0 9 -5 9 -6 0 -11 10 -11 21 0 17 -3 19 -14 10 -12 -10 -14 -8 -12
12 2 19 -1 23 -16 19 -10 -2 -18 1 -18 8 0 8 -8 10 -21 7 -13 -3 -22 0 -26 10
-5 12 -7 12 -14 1 -7 -10 -9 -10 -9 0 0 6 -7 12 -15 12 -8 0 -15 7 -15 16 0 8
-4 12 -10 9 -5 -3 -10 0 -10 7 0 9 -3 9 -10 -2 -7 -11 -10 -11 -10 -2 0 15
-78 14 -87 -2z m5315 -4957 c10 -9 26 -15 35 -13 9 1 17 -2 17 -7 0 -6 5 -7
10 -4 6 3 10 0 10 -7 0 -11 2 -10 9 0 7 11 9 11 14 -2 4 -9 14 -16 22 -16 10
0 13 -5 9 -12 -5 -10 -4 -10 6 -1 10 9 17 10 27 2 17 -15 19 -214 2 -203 -8 4
-8 0 0 -15 10 -18 9 -20 -5 -14 -12 5 -15 3 -9 -6 5 -10 1 -12 -16 -7 -13 3
-18 3 -11 0 18 -8 15 -27 -4 -20 -8 3 -12 2 -9 -4 3 -6 1 -10 -6 -10 -7 0 -9
-3 -6 -6 9 -9 -33 -45 -44 -38 -5 3 -6 -3 -2 -12 5 -13 3 -16 -10 -11 -12 4
-14 2 -10 -10 4 -11 2 -14 -5 -9 -7 4 -12 1 -12 -9 0 -9 -4 -13 -10 -10 -5 3
-10 1 -10 -5 0 -6 -5 -8 -12 -4 -10 6 -10 5 0 -8 10 -13 9 -15 -13 -13 -13 2
-24 0 -24 -3 1 -4 1 -14 0 -22 -1 -13 -2 -13 -11 0 -7 12 -10 12 -10 1 0 -8
-6 -11 -16 -7 -8 3 -13 2 -10 -3 3 -5 -5 -12 -19 -15 -14 -4 -25 -12 -25 -18
0 -9 3 -9 12 0 7 7 16 12 21 12 5 0 -2 -9 -16 -20 -14 -11 -32 -20 -41 -20 -9
0 -16 -7 -16 -15 0 -8 -6 -12 -14 -9 -8 3 -17 0 -22 -7 -5 -8 -3 -10 6 -4 9 5
11 4 6 -4 -6 -9 -11 -9 -24 1 -12 10 -14 10 -8 1 4 -8 2 -13 -4 -13 -6 0 -8
-5 -4 -12 4 -7 3 -8 -4 -4 -18 11 -37 -4 -21 -16 11 -7 11 -9 -1 -7 -31 3 -41
-1 -34 -13 5 -9 2 -8 -9 1 -15 12 -17 12 -12 -1 4 -11 -2 -18 -20 -22 -17 -4
-23 -11 -18 -19 4 -7 -2 -5 -12 3 -10 8 -16 10 -12 4 7 -13 -27 -27 -57 -24
-10 1 -15 -3 -12 -8 9 -15 -20 -22 -33 -9 -10 9 -12 9 -9 -3 2 -9 -6 -16 -20
-18 -12 -2 -20 -7 -17 -12 3 -5 -6 -7 -21 -4 -16 3 -23 1 -19 -6 4 -6 -1 -7
-11 -3 -13 5 -16 2 -12 -9 4 -8 1 -15 -8 -15 -7 0 -10 5 -7 11 4 6 -3 3 -14
-6 -11 -10 -27 -18 -37 -18 -9 0 -14 -4 -11 -10 4 -6 -5 -10 -19 -10 -16 0
-26 -6 -26 -15 0 -8 -5 -15 -11 -15 -5 0 -8 4 -5 8 3 5 -1 9 -9 9 -8 0 -13 -5
-12 -11 1 -6 -8 -11 -20 -10 -17 0 -20 -3 -12 -12 7 -9 5 -12 -8 -9 -10 1 -24
-3 -32 -9 -12 -9 -13 -8 -7 2 7 11 4 12 -13 3 -11 -7 -21 -14 -21 -17 0 -3 5
-2 12 2 7 5 8 3 4 -5 -5 -7 -15 -10 -23 -7 -9 4 -22 1 -29 -5 -7 -6 -17 -8
-23 -5 -5 3 -11 0 -14 -8 -4 -9 -14 -12 -28 -9 -15 4 -20 3 -15 -5 4 -7 1 -12
-9 -12 -10 0 -13 5 -9 13 4 6 -2 4 -13 -5 -11 -10 -30 -18 -42 -18 -12 0 -20
-4 -17 -9 4 -5 -4 -7 -16 -3 -12 3 -19 1 -15 -4 3 -6 -11 -11 -31 -12 -20 -2
-56 -4 -79 -5 -23 -1 -45 -6 -49 -10 -12 -12 -26 -8 -18 6 4 6 -1 5 -12 -4
-10 -9 -27 -15 -36 -14 -10 2 -21 -2 -25 -7 -4 -7 -1 -8 7 -3 8 5 11 4 6 -3
-3 -5 -20 -8 -37 -5 -17 2 -29 1 -26 -4 5 -8 -2 -10 -58 -15 -14 -1 -25 -5
-25 -8 0 -6 -10 -8 -78 -13 -24 -2 -47 -9 -51 -16 -10 -15 -9 -15 -44 -2 -16
6 -26 8 -23 3 2 -4 -12 -6 -32 -4 -47 4 -60 4 -99 -1 -22 -3 -39 2 -53 15 -11
10 -24 16 -29 13 -5 -3 -13 0 -17 6 -4 8 -3 9 4 5 20 -12 13 6 -9 25 -22 19
-20 57 2 43 8 -4 8 0 0 15 -10 17 -9 21 5 21 13 0 14 3 5 14 -9 10 -7 17 6 27
17 13 17 13 3 -6 -14 -19 -14 -19 2 -6 10 7 16 17 13 21 -3 5 2 16 11 24 11
12 12 16 2 16 -8 1 -5 6 7 16 11 8 19 22 17 30 -2 8 2 14 8 14 6 0 8 5 4 12
-5 8 -2 9 10 5 14 -6 15 -4 5 14 -8 15 -8 19 0 15 6 -4 11 -2 11 4 0 6 5 8 10
5 6 -4 9 -1 8 7 -2 7 2 12 9 11 7 -2 10 4 7 12 -4 8 -11 12 -17 8 -6 -3 -7 -1
-3 6 4 6 12 9 17 5 6 -3 13 3 16 15 3 11 9 18 14 15 5 -3 6 3 2 12 -5 13 -3
16 10 11 12 -4 15 -1 12 14 -2 10 1 19 7 19 6 0 8 10 5 23 -6 21 -6 21 8 3 15
-19 15 -19 15 2 0 12 5 22 11 22 5 0 7 -5 3 -12 -4 -7 -3 -8 5 -4 6 4 9 11 6
16 -3 4 2 11 11 14 9 4 14 13 10 21 -5 13 -2 14 15 4 14 -7 19 -7 15 0 -8 13
15 51 31 51 7 0 13 7 13 15 0 14 13 20 34 16 5 -1 3 5 -4 14 -11 13 -10 15 3
9 17 -6 41 28 29 41 -4 5 -1 5 6 1 7 -4 10 -13 6 -19 -3 -7 2 -3 11 8 9 11 21
19 26 18 5 -2 9 2 9 8 0 5 6 7 13 3 9 -6 9 -5 -1 8 -10 13 -9 15 13 13 16 -2
23 1 18 8 -4 7 0 8 12 3 15 -5 16 -4 6 8 -9 11 -9 16 0 22 8 4 9 3 5 -4 -9
-15 -1 -15 25 -1 11 5 16 15 13 21 -4 7 -3 8 4 4 15 -9 52 15 53 34 0 12 2 12
6 1 4 -11 10 -8 25 10 11 13 17 19 14 13 -3 -7 1 -15 10 -18 11 -4 15 -2 11 8
-5 13 37 38 68 40 6 1 15 8 22 16 6 8 14 12 18 8 8 -8 35 14 29 24 -2 3 5 4
16 1 15 -4 20 0 21 13 0 11 3 14 6 7 2 -7 9 -13 14 -13 6 0 7 5 4 10 -3 6 -1
11 4 11 6 1 16 3 21 4 6 1 15 3 20 4 6 0 10 9 10 19 0 14 2 15 10 2 7 -11 10
-11 10 -2 0 7 5 10 10 7 6 -3 10 -1 10 5 0 6 5 8 10 5 6 -3 10 -1 10 5 0 6 4
9 9 6 12 -7 42 4 37 13 -3 4 8 6 22 5 15 -1 36 6 46 15 14 11 17 12 11 2 -6
-11 -4 -13 11 -6 10 4 30 8 44 9 14 1 31 8 38 16 8 8 11 9 7 3 -3 -7 -1 -13 4
-13 6 0 11 5 11 11 0 5 5 7 10 4 6 -4 17 -2 24 4 6 6 30 13 52 16 21 3 59 9
84 13 25 4 145 7 267 7 188 0 225 -2 241 -16z m-2164 -434 c-4 -8 -11 -15 -16
-15 -6 0 -5 6 2 15 7 8 14 15 16 15 2 0 1 -7 -2 -15z m-1179 -105 c10 -11 16
-20 13 -20 -3 0 -13 9 -23 20 -10 11 -16 20 -13 20 3 0 13 -9 23 -20z m175
-175 c19 -19 32 -35 29 -35 -3 0 -20 16 -39 35 -19 19 -32 35 -29 35 3 0 20
-16 39 -35z m3270 -9 c0 -2 -8 -10 -17 -17 -16 -13 -17 -12 -4 4 13 16 21 21
21 13z m-3159 -103 c13 -16 12 -17 -3 -4 -17 13 -22 21 -14 21 2 0 10 -8 17
-17z m3033 -24 c-3 -5 -10 -7 -15 -3 -5 3 -7 10 -3 15 3 5 10 7 15 3 5 -3 7
-10 3 -15z m-2913 -116 c13 -16 12 -17 -3 -4 -17 13 -22 21 -14 21 2 0 10 -8
17 -17z m126 -155 c-3 -8 -6 -5 -6 6 -1 11 2 17 5 13 3 -3 4 -12 1 -19z m470
-454 c-3 -3 -12 -4 -19 -1 -8 3 -5 6 6 6 11 1 17 -2 13 -5z m-4075 -181 c-6
-2 -9 -10 -6 -15 4 -7 2 -8 -5 -4 -13 9 -5 26 12 25 9 0 8 -2 -1 -6z m413 -2
c3 -5 1 -12 -5 -16 -5 -3 -10 1 -10 9 0 18 6 21 15 7z m3982 -137 c-3 -3 -12
-4 -19 -1 -8 3 -5 6 6 6 11 1 17 -2 13 -5z m478 -464 c3 -6 -1 -7 -9 -4 -18 7
-21 14 -7 14 6 0 13 -4 16 -10z"/>
<path d="M5815 1760 c3 -5 8 -10 11 -10 2 0 4 5 4 10 0 6 -5 10 -11 10 -5 0
-7 -4 -4 -10z"/>
<path d="M328 5016 c-21 -7 -40 -11 -44 -7 -4 3 -3 0 1 -8 6 -11 4 -13 -9 -8
-9 4 -15 3 -12 -2 3 -5 -8 -14 -25 -20 -22 -7 -29 -15 -25 -26 5 -13 2 -14
-15 -4 -19 10 -20 9 -9 -11 7 -14 8 -20 1 -16 -5 4 -15 -3 -21 -14 -7 -12 -18
-19 -25 -16 -17 6 -30 -10 -15 -19 6 -4 5 -11 -3 -19 -6 -8 -15 -12 -19 -9 -4
2 -5 -4 -1 -13 4 -12 3 -15 -5 -10 -8 5 -10 1 -5 -10 5 -12 3 -15 -6 -9 -10 6
-11 3 -1 -15 8 -15 8 -20 1 -16 -10 6 -13 0 -10 -20 0 -4 -5 -11 -13 -15 -10
-7 -10 -9 0 -9 10 0 10 -3 0 -14 -7 -8 -17 -11 -23 -8 -5 3 -4 -2 4 -11 12
-15 12 -17 -3 -11 -12 4 -15 2 -10 -9 3 -8 1 -18 -5 -21 -6 -4 -8 -13 -5 -21
3 -8 -2 -22 -11 -31 -11 -12 -13 -20 -6 -27 6 -6 11 -16 11 -21 0 -6 -5 -4
-10 4 -7 11 -10 5 -10 -23 0 -28 3 -36 13 -31 7 5 7 1 -3 -12 -8 -10 -11 -16
-6 -12 11 9 46 -23 39 -35 -3 -6 -1 -7 6 -3 7 5 20 -1 31 -13 13 -16 20 -18
23 -9 4 10 6 10 6 1 1 -8 14 -13 31 -13 17 0 30 -4 30 -10 0 -5 5 -10 11 -10
5 0 7 6 3 13 -6 10 -4 10 7 0 17 -17 244 -18 233 -2 -5 8 -1 8 14 0 15 -8 21
-8 24 0 2 7 29 11 67 11 50 0 61 3 57 15 -3 8 -1 11 4 8 6 -3 10 0 10 7 0 10
3 9 9 -1 8 -12 12 -13 25 -2 9 8 15 21 14 30 -2 10 4 15 14 15 14 -1 16 2 7
18 -7 12 -7 18 -1 14 13 -8 22 17 12 34 -5 7 -4 23 0 36 5 12 6 25 2 28 -3 4
-7 16 -9 28 -2 12 -7 25 -11 28 -4 3 -7 12 -7 20 0 8 -4 18 -10 22 -6 5 -5 8
3 8 10 0 9 4 -2 16 -9 8 -14 20 -11 25 4 5 0 9 -7 9 -9 0 -9 3 2 10 13 8 12
10 -3 10 -10 0 -16 4 -12 9 3 5 -2 16 -10 24 -8 9 -15 20 -15 26 0 5 -11 22
-26 36 -14 14 -22 30 -19 35 3 6 -4 10 -17 10 -18 0 -20 2 -8 10 12 8 12 10 1
10 -8 0 -20 8 -28 18 -10 11 -12 12 -8 2 4 -10 2 -9 -8 2 -8 10 -17 15 -20 11
-4 -3 -9 2 -13 11 -3 9 -10 16 -16 16 -5 0 -6 -6 -3 -12 4 -7 -2 -3 -13 9 -13
15 -22 19 -29 12 -7 -7 -13 -7 -18 2 -6 8 -4 10 5 4 9 -5 11 -4 6 3 -4 7 -8
12 -9 12 -1 -1 -19 -7 -39 -14z m307 -565 c3 -5 2 -12 -3 -15 -5 -3 -9 1 -9 9
0 17 3 19 12 6z"/>
<path d="M201 4154 c-16 -7 -32 -10 -35 -7 -3 4 -6 2 -6 -3 0 -5 -8 -10 -17
-11 -43 -3 -58 -11 -61 -31 -2 -12 -7 -22 -12 -22 -4 0 -6 -10 -2 -22 4 -15 2
-19 -7 -13 -10 6 -11 3 -2 -14 7 -11 8 -21 4 -21 -4 0 -6 -43 -3 -96 3 -53 2
-98 -3 -101 -4 -2 -2 -13 3 -24 6 -10 7 -19 2 -19 -4 0 -6 -16 -4 -35 3 -24 0
-35 -9 -35 -9 0 -10 -3 -2 -11 8 -8 7 -18 -3 -37 -8 -15 -10 -30 -5 -35 5 -5
6 -21 2 -36 -9 -32 -8 -42 3 -59 4 -7 4 -18 -1 -25 -10 -13 -10 -54 0 -63 3
-3 2 -17 -3 -30 -5 -13 -6 -26 0 -29 5 -3 5 -18 1 -33 -9 -33 -8 -43 3 -60 4
-7 3 -18 -2 -25 -12 -16 -7 -47 10 -59 9 -7 10 -11 1 -14 -8 -4 -8 -11 2 -30
7 -13 12 -34 11 -47 -1 -12 4 -28 11 -35 8 -9 9 -20 3 -36 -5 -15 -5 -27 2
-34 8 -8 8 -15 -1 -26 -9 -10 -9 -16 -1 -21 7 -4 8 -11 1 -18 -15 -19 -15 -21
-2 -44 8 -15 8 -23 1 -23 -6 0 -5 -12 5 -30 18 -35 19 -44 3 -34 -9 5 -9 3 1
-9 7 -9 11 -26 8 -37 -3 -11 -1 -22 4 -25 4 -3 5 -13 2 -21 -3 -9 0 -20 8 -25
10 -6 11 -9 1 -9 -10 0 -10 -6 1 -27 9 -18 11 -38 7 -54 -4 -15 -4 -32 0 -39
4 -6 4 -29 0 -51 -4 -22 -4 -41 -1 -43 4 -3 6 -17 5 -33 0 -15 4 -31 10 -35 8
-5 7 -8 -2 -8 -8 0 -5 -8 8 -22 12 -13 16 -24 10 -26 -7 -3 -6 -12 5 -28 8
-13 12 -24 8 -24 -5 0 -8 -11 -8 -25 0 -14 3 -25 7 -25 3 0 5 -15 3 -32 -4
-25 -2 -29 6 -18 8 11 9 6 7 -22 -2 -20 -1 -35 3 -32 4 2 9 -3 13 -11 3 -8 0
-15 -7 -15 -8 0 -8 -3 2 -9 8 -5 12 -18 8 -30 -3 -12 -1 -21 4 -21 6 0 9 -6 8
-12 -3 -24 1 -39 9 -34 4 2 6 -11 4 -31 -3 -23 0 -38 9 -44 11 -7 11 -9 1 -9
-10 0 -10 -5 -1 -21 6 -12 9 -30 6 -40 -3 -10 -1 -19 3 -19 5 0 7 -15 5 -32
-4 -25 -2 -29 6 -18 7 11 9 5 7 -24 -2 -25 2 -41 10 -44 6 -2 12 -8 12 -13 0
-6 -5 -7 -11 -3 -7 4 -7 -1 1 -16 6 -12 9 -33 6 -46 -4 -13 -2 -24 3 -24 5 0
6 -14 1 -33 -7 -32 9 -75 23 -61 3 3 3 -3 0 -15 -8 -31 5 -73 20 -64 9 5 9 4
0 -8 -7 -9 -8 -20 -3 -29 5 -8 6 -18 4 -22 -3 -4 3 -8 13 -8 15 0 16 -2 3 -10
-12 -8 -11 -10 6 -10 12 0 28 -8 35 -17 10 -11 10 -14 2 -9 -7 4 -13 2 -13 -3
0 -6 5 -11 11 -11 5 0 7 -4 4 -10 -3 -5 0 -7 7 -5 13 5 16 -5 20 -52 1 -7 8
-13 17 -13 13 0 13 -2 3 -9 -11 -6 -10 -11 3 -25 10 -10 12 -16 4 -16 -9 0 -9
-3 1 -15 6 -8 9 -19 5 -25 -3 -5 2 -10 12 -10 15 0 16 -2 3 -10 -13 -8 -12
-10 3 -10 10 0 16 -4 13 -8 -3 -5 1 -9 9 -9 8 0 12 4 9 9 -7 11 3 10 29 -4 20
-10 21 -10 8 5 -9 11 -10 17 -2 17 6 0 11 11 11 24 0 13 7 29 15 36 8 7 15 19
15 27 0 8 4 12 9 8 5 -3 12 -1 15 4 4 5 2 13 -4 16 -7 4 -7 11 -2 18 14 18 21
56 12 62 -5 3 -5 18 -1 33 9 33 8 43 -3 60 -4 7 -4 18 1 25 10 13 10 54 0 63
-3 3 -2 17 3 30 5 13 6 26 0 29 -5 3 -5 18 -1 33 8 32 8 43 -1 57 -4 6 -5 23
-4 39 2 17 -2 30 -11 33 -9 4 -10 9 -3 18 5 6 7 15 3 19 -8 8 -8 85 1 93 3 3
1 12 -5 20 -6 7 -8 13 -3 13 5 0 9 31 8 70 -1 45 3 67 9 63 6 -4 8 0 4 10 -3
10 -3 17 2 17 9 0 8 31 -2 47 -4 6 -3 15 3 18 8 5 7 11 -1 21 -7 9 -8 19 -2
27 10 13 10 54 0 63 -3 3 -2 17 3 30 5 13 6 26 0 29 -5 3 -5 18 -1 33 9 33 8
43 -3 60 -4 7 -4 18 1 25 10 13 10 54 0 63 -3 3 -1 19 3 35 5 17 5 31 -1 35
-6 4 -6 11 1 19 8 10 8 15 0 20 -8 5 -8 10 0 20 8 10 8 15 0 20 -8 5 -8 10 0
20 8 10 8 15 0 20 -8 5 -8 10 0 20 8 10 8 15 0 20 -8 5 -8 10 0 20 8 10 8 15
0 20 -8 5 -8 10 0 20 8 10 8 15 0 20 -8 5 -8 10 0 20 8 10 8 15 0 20 -8 5 -8
10 0 20 8 10 8 15 0 20 -8 5 -8 10 0 20 8 10 8 15 0 20 -8 5 -8 10 0 20 8 10
8 15 0 20 -8 5 -8 10 0 20 7 8 7 15 1 19 -6 4 -6 18 -1 36 5 18 5 32 -1 35 -5
4 -5 13 0 23 5 9 9 20 10 25 1 4 1 8 2 10 1 1 2 14 3 29 0 14 4 30 8 33 4 4 3
16 -3 26 -6 11 -6 19 0 19 5 0 6 14 1 35 -4 20 -4 38 1 41 5 3 5 13 -1 25 -6
11 -7 19 -1 19 5 0 6 14 1 35 -4 20 -4 38 1 41 5 3 5 13 -1 25 -6 11 -7 19 -1
19 5 0 6 14 1 35 -4 20 -4 38 1 41 5 3 5 13 -1 25 -6 11 -7 19 -1 19 5 0 6 14
1 35 -4 20 -4 38 1 41 5 3 5 13 -1 25 -6 11 -7 19 -1 19 5 0 6 14 1 35 -4 20
-4 38 1 41 5 3 5 13 -1 25 -6 11 -7 19 -1 19 5 0 6 14 1 35 -4 20 -4 38 1 41
5 3 5 13 -1 25 -6 11 -7 19 -1 19 5 0 6 14 1 35 -5 21 -4 38 2 41 5 4 5 10 -1
18 -6 7 -6 17 -1 26 6 10 3 21 -8 34 -9 11 -12 16 -5 13 14 -9 5 31 -10 40 -7
4 -8 0 -3 -12 7 -18 6 -18 -14 0 -23 20 -26 30 -7 19 9 -5 9 -4 0 6 -17 18
-331 21 -372 4z"/>
<path d="M4180 3312 c0 -5 7 -15 15 -22 8 -7 15 -9 15 -6 0 4 -7 14 -15 22 -8
9 -15 11 -15 6z"/>
<path d="M918 3093 c7 -3 16 -2 19 1 4 3 -2 6 -13 5 -11 0 -14 -3 -6 -6z"/>
<path d="M940 3070 c0 -5 5 -10 11 -10 5 0 7 5 4 10 -3 6 -8 10 -11 10 -2 0
-4 -4 -4 -10z"/>
<path d="M1090 2786 c0 -2 8 -10 18 -17 15 -13 16 -12 3 4 -13 16 -21 21 -21
13z"/>
</g>
</svg>
